<svg width="22" height="18" viewBox="0 0 22 18" fill="none" xmlns="http://www.w3.org/2000/svg">
<path d="M4.74141 6.96261L7.67785 8.40478C8.1787 8.65077 8.42913 8.77376 8.578 8.99366C8.72688 9.21357 8.74806 9.49177 8.79041 10.0482L9.03873 13.3102C9.22818 15.7989 9.32291 17.0432 10.0239 17.2175C10.725 17.3917 11.3913 16.3366 12.724 14.2263L19.1516 4.04807C20.198 2.39101 20.7212 1.56248 20.3546 1.0209C19.9879 0.479326 19.0243 0.657374 17.0971 1.01347L5.25968 3.20072C2.80535 3.65422 1.57818 3.88097 1.47959 4.59659C1.381 5.31221 2.50114 5.86234 4.74141 6.96261Z" stroke="white" stroke-width="1.3"/>
</svg>
